<?xml version="1.0" standalone="no"?>
<!DOCTYPE svg PUBLIC "-//W3C//DTD SVG 20010904//EN"
 "http://www.w3.org/TR/2001/REC-SVG-20010904/DTD/svg10.dtd">
<svg version="1.0" xmlns="http://www.w3.org/2000/svg"
 width="2131.000000pt" height="1919.000000pt" viewBox="0 0 2131.000000 1919.000000"
 preserveAspectRatio="xMidYMid meet">

<g transform="translate(0.000000,1919.000000) scale(0.100000,-0.100000)"
fill="#000000" stroke="none">
<path d="M8220 18029 c-352 -12 -746 -55 -1055 -114 -44 -9 -105 -20 -135 -24
-31 -5 -73 -14 -95 -20 -22 -6 -107 -26 -190 -46 -82 -20 -181 -45 -220 -56
-38 -11 -95 -27 -125 -35 -318 -89 -870 -303 -1135 -439 -168 -87 -366 -193
-405 -216 -25 -16 -74 -45 -110 -65 -36 -20 -97 -58 -137 -83 -39 -25 -117
-75 -174 -111 -56 -36 -118 -77 -138 -93 -45 -34 -59 -44 -122 -87 -59 -41
-243 -181 -378 -288 -51 -41 -139 -119 -193 -173 -55 -55 -103 -99 -107 -99
-8 0 -329 -316 -461 -455 -88 -92 -156 -168 -238 -265 -57 -67 -126 -158 -139
-184 -8 -17 -23 -38 -32 -47 -9 -10 -38 -49 -66 -88 -27 -39 -73 -102 -100
-139 -69 -91 -223 -326 -235 -356 -5 -13 -19 -35 -31 -48 -57 -61 -379 -647
-379 -690 0 -11 13 -52 28 -91 16 -40 36 -108 46 -152 9 -44 22 -98 28 -120
10 -39 15 -67 38 -220 5 -38 12 -126 14 -193 5 -152 9 -157 107 -166 73 -8
206 -33 221 -42 5 -3 33 -10 61 -14 97 -16 293 -82 345 -117 18 -12 50 -27 70
-34 20 -6 51 -22 68 -35 17 -12 44 -26 59 -30 35 -9 174 -100 197 -130 10 -12
35 -29 57 -37 22 -9 43 -23 48 -30 4 -8 51 -51 103 -97 52 -45 98 -90 102
-101 4 -10 14 -19 23 -19 8 0 26 -17 39 -37 13 -21 41 -57 62 -80 71 -76 87
-97 147 -188 92 -139 123 -190 161 -272 14 -28 30 -54 35 -58 6 -3 16 -24 22
-45 7 -22 20 -47 31 -56 10 -10 18 -29 19 -43 1 -47 23 -104 42 -107 14 -2 17
6 19 49 0 29 1 60 0 70 -1 9 3 17 10 17 16 0 37 31 38 55 0 11 11 55 25 98 15
47 22 89 19 106 -4 16 -1 32 5 35 6 4 11 20 11 37 0 16 4 29 10 29 11 0 30 64
30 103 0 15 4 27 10 27 5 0 12 15 15 33 4 20 15 37 28 42 19 9 23 21 29 83 5
43 14 79 23 88 8 9 15 26 15 40 0 13 6 24 13 24 8 0 14 15 15 43 3 57 11 77
27 77 9 0 12 6 8 16 -5 14 -2 16 20 10 16 -4 27 -2 27 4 0 5 9 19 21 31 11 11
19 30 18 42 -3 31 12 107 21 107 4 0 11 21 14 48 13 90 31 152 43 152 7 0 13
6 13 13 0 7 25 21 56 32 31 10 70 32 86 47 17 15 34 28 39 28 5 0 9 6 9 14 0
8 11 17 25 20 14 4 25 13 25 20 0 8 7 16 15 20 8 3 15 15 15 26 0 11 7 20 15
20 8 0 15 6 15 13 0 7 9 18 20 25 11 7 20 20 20 31 0 10 14 37 30 59 17 23 30
45 30 50 0 4 14 18 30 32 17 14 30 32 31 40 0 10 2 11 6 3 2 -7 12 -13 20 -13
9 0 13 6 10 13 -3 8 3 20 14 28 10 7 19 19 19 26 0 7 4 13 8 13 5 0 17 16 28
37 10 20 27 51 36 68 13 25 26 34 53 38 38 6 115 74 115 101 0 7 16 27 36 44
20 17 44 45 53 63 10 18 32 40 50 50 18 10 48 31 67 48 18 17 38 31 43 31 16
0 91 75 110 110 10 20 30 38 48 44 16 6 45 25 64 43 18 18 46 35 61 39 16 3
26 10 23 14 -7 12 17 50 31 50 6 0 31 18 55 41 24 22 52 45 62 50 9 5 17 16
17 24 0 8 6 15 14 15 18 0 76 32 76 43 0 4 7 7 16 7 8 0 29 13 47 30 18 16 37
30 44 30 6 0 15 9 18 20 3 11 15 20 25 20 10 0 21 4 25 9 3 5 19 12 35 16 21
5 32 14 36 31 8 30 40 54 74 54 15 0 35 8 46 18 10 9 31 25 47 35 15 10 27 24
27 32 0 8 9 15 20 15 24 0 53 41 44 63 -3 9 -17 23 -30 32 -25 16 -31 44 -14
75 7 13 7 27 -1 44 -10 22 -8 29 17 60 52 63 131 59 160 -9 19 -47 18 -78 -7
-109 -19 -24 -19 -27 -5 -42 9 -8 16 -24 16 -34 0 -13 11 -22 35 -29 20 -5 44
-20 54 -32 18 -22 18 -22 37 -3 11 11 46 52 78 92 32 40 69 77 82 82 13 5 24
16 24 24 0 33 108 63 126 35 3 -5 12 -9 20 -9 17 0 19 27 2 33 -27 9 4 20 51
18 38 -1 57 4 86 24 42 28 75 33 75 10 0 -8 7 -15 15 -15 12 0 13 4 6 19 -10
17 -5 20 52 31 108 21 127 23 156 10 34 -13 71 -5 71 15 0 18 -36 38 -69 39
-13 1 -26 7 -28 13 -6 17 111 6 151 -14 33 -17 68 -11 105 18 l26 21 13 -33
c11 -25 16 -29 23 -18 5 8 9 22 9 31 0 10 11 19 30 23 20 4 30 13 30 25 0 22
25 44 40 35 6 -4 15 -18 20 -31 6 -15 18 -24 30 -24 27 0 62 18 56 29 -3 4 38
9 91 9 52 1 100 5 106 9 6 3 88 5 184 4 168 -2 173 -1 173 19 0 29 34 26 54
-5 21 -33 86 -37 86 -6 0 15 -8 21 -32 23 -41 4 -45 32 -6 36 17 2 34 -4 47
-17 12 -12 30 -21 41 -21 11 0 20 -7 20 -15 0 -8 12 -18 28 -21 15 -4 30 -11
33 -16 7 -11 168 -30 192 -22 21 7 139 -11 216 -33 32 -9 69 -13 92 -9 41 7
139 -10 139 -24 0 -5 15 -12 33 -15 17 -4 37 -12 44 -17 9 -7 20 -2 38 18 16
17 25 22 25 12 0 -7 -5 -19 -10 -24 -6 -6 -8 -19 -4 -28 5 -14 14 -17 35 -12
22 4 36 -1 62 -23 26 -24 45 -30 97 -35 85 -7 195 -32 245 -56 22 -11 51 -21
65 -24 44 -9 251 -191 279 -245 11 -19 18 -22 44 -17 18 3 46 13 62 21 45 21
145 49 152 41 3 -3 1 -17 -5 -31 -7 -14 -12 -32 -12 -39 0 -16 53 -40 72 -34
7 3 23 -6 35 -19 12 -12 26 -23 30 -23 17 0 63 -52 63 -70 0 -23 44 -55 65
-46 8 3 15 17 15 31 0 29 11 31 68 11 23 -8 70 -14 109 -13 64 2 72 4 96 32
26 30 42 79 31 96 -3 5 -9 7 -14 4 -18 -11 -22 19 -5 32 15 10 21 10 28 0 6
-9 7 -8 4 4 -9 30 8 44 38 31 14 -7 35 -12 46 -12 34 0 76 -27 97 -63 37 -64
37 -73 -7 -117 -45 -45 -40 -44 -77 -30 -20 8 -37 7 -63 -3 -20 -8 -44 -13
-53 -12 -18 3 -15 -17 6 -44 13 -16 13 -14 14 -118 l2 -83 29 0 c31 0 51 -17
34 -29 -6 -3 -15 -16 -21 -27 -17 -31 5 -46 56 -38 44 7 66 -2 129 -53 31 -25
44 -43 49 -71 12 -70 31 -117 53 -127 11 -5 21 -13 21 -17 0 -5 10 -8 22 -8
12 0 18 -3 15 -6 -4 -4 2 -14 12 -23 11 -9 24 -35 30 -58 10 -35 16 -43 44
-48 32 -7 77 -48 77 -70 0 -7 6 -18 14 -25 8 -6 13 -17 10 -24 -3 -8 2 -16 10
-19 9 -4 16 -13 16 -21 0 -8 9 -17 19 -21 15 -4 22 -19 27 -53 5 -32 18 -59
40 -86 19 -22 34 -43 34 -48 0 -4 5 -8 12 -8 23 0 88 -82 88 -112 0 -32 28
-65 64 -74 19 -4 25 -14 30 -46 4 -23 20 -58 38 -80 17 -22 37 -56 43 -76 8
-21 21 -39 31 -41 11 -2 24 -11 31 -21 7 -10 29 -28 47 -40 19 -11 44 -36 56
-55 11 -18 30 -35 42 -37 26 -4 43 -30 35 -52 -5 -11 -19 -16 -48 -16 -40 0
-41 -1 -34 -27 9 -37 23 -53 46 -53 18 0 23 -15 22 -57 -1 -7 3 -13 7 -13 4 0
11 -16 15 -36 3 -20 12 -43 18 -50 42 -47 48 -64 22 -64 -8 0 -15 -7 -15 -15
0 -18 16 -20 23 -2 3 7 24 14 48 15 24 2 61 12 82 22 21 11 52 20 69 20 23 0
38 8 54 27 18 23 30 27 80 30 32 1 76 10 99 19 22 9 65 20 95 25 30 4 98 15
150 25 52 9 134 16 182 16 78 0 89 3 101 22 8 11 22 82 32 156 9 74 23 146 30
160 7 14 21 52 30 85 10 33 24 69 31 80 8 11 14 28 14 38 0 10 20 52 45 95 25
42 45 80 45 85 0 12 80 138 119 187 20 25 44 56 53 70 21 33 137 150 149 150
5 0 9 6 9 13 0 6 20 28 45 47 25 19 60 50 79 68 19 17 41 32 49 32 8 0 22 9
32 20 10 11 22 20 28 20 8 0 79 34 144 69 118 63 336 131 476 147 57 7 59 8
54 33 -5 24 -58 123 -123 231 -15 25 -44 77 -64 115 -19 39 -55 98 -78 133
-23 35 -42 65 -42 67 0 3 -99 156 -136 210 -160 235 -198 288 -256 361 -27 32
-78 97 -114 144 -196 251 -660 740 -844 890 -30 24 -91 76 -135 115 -44 40
-120 102 -170 140 -49 37 -112 87 -140 109 -64 54 -168 128 -325 235 -252 171
-244 166 -550 343 -123 72 -459 238 -625 310 -399 173 -814 315 -1160 397 -49
12 -135 33 -190 46 -171 41 -249 55 -510 95 -473 71 -912 97 -1395 79z m-1191
-193 c9 -11 10 -20 1 -35 -12 -24 -21 -26 -38 -9 -16 16 -15 45 1 51 20 9 24
8 36 -7z m3364 -418 c19 -25 19 -28 4 -52 -23 -34 -54 -42 -78 -20 -26 24 -25
69 4 89 29 20 45 16 70 -17z m-245 -240 c3 -22 -2 -30 -22 -39 -31 -14 -56 2
-56 36 0 30 9 36 45 33 24 -2 31 -8 33 -30z m-1543 -38 c0 -18 -6 -26 -23 -28
-13 -2 -25 3 -28 12 -10 26 4 48 28 44 17 -2 23 -10 23 -28z m-2013 -310 c25
-26 29 -36 24 -63 -15 -77 -97 -90 -134 -20 -21 38 -14 61 25 88 21 14 41 25
46 25 5 0 22 -14 39 -30z m1286 -82 c19 -19 14 -46 -9 -59 -18 -9 -25 -7 -41
9 -16 16 -18 23 -9 41 13 23 40 28 59 9z m1044 -14 c15 -33 1 -58 -36 -62 -49
-6 -74 38 -40 72 25 25 63 20 76 -10z m-3443 -54 c10 -5 24 -23 31 -40 11 -28
11 -34 -7 -58 -26 -35 -70 -40 -106 -12 -67 53 6 151 82 110z m4861 -324 c0
-33 -25 -53 -45 -36 -16 13 -20 42 -8 53 3 4 17 7 30 7 18 0 23 -6 23 -24z
m-3065 -171 c0 -25 -4 -30 -25 -30 -28 0 -39 27 -19 51 20 24 44 13 44 -21z
m6015 15 c11 -11 20 -26 20 -34 0 -18 -27 -46 -43 -46 -20 0 -57 30 -57 46 0
16 35 54 50 54 6 0 19 -9 30 -20z m-1720 -175 c19 -23 8 -50 -20 -50 -16 0
-26 6 -28 18 -4 18 14 47 28 47 4 0 13 -7 20 -15z m-2620 -97 c23 -25 26 -75
7 -102 -7 -9 -31 -20 -53 -23 -36 -5 -43 -2 -62 22 -26 33 -27 44 -8 90 14 32
19 35 55 35 28 0 46 -6 61 -22z m-4065 -133 c34 -33 35 -107 3 -129 -29 -20
-102 -21 -121 -1 -38 37 -27 127 17 145 39 16 76 11 101 -15z m-1637 -88 c6
-5 12 -27 12 -48 0 -34 -4 -41 -32 -52 -40 -17 -68 -8 -87 25 -13 23 -13 29 3
52 27 42 67 51 104 23z m8626 -72 c14 -14 32 -25 41 -25 8 0 15 -6 15 -14 0
-17 -39 -9 -47 9 -2 7 -15 16 -29 19 -13 4 -24 13 -24 21 0 22 16 18 44 -10z
m-3727 -11 c2 -6 -3 -18 -10 -28 -20 -28 -67 -14 -67 18 0 15 7 26 18 28 21 5
55 -5 59 -18z m5117 -39 c17 -44 -15 -95 -59 -95 -32 0 -65 37 -65 72 0 21 8
33 32 48 28 17 34 17 58 5 15 -8 30 -22 34 -30z m-1437 -10 c3 -9 3 -19 -1
-22 -7 -7 -36 16 -36 28 0 15 30 10 37 -6z m176 -23 c25 -22 21 -42 -8 -42
-23 0 -25 -3 -19 -27 8 -35 18 -46 45 -50 20 -3 21 0 15 36 -4 24 -2 42 4 46
11 7 145 -68 156 -86 3 -5 20 -16 37 -24 18 -8 59 -35 92 -60 33 -25 73 -53
89 -62 16 -10 40 -27 55 -39 14 -11 76 -46 136 -78 61 -31 115 -63 120 -70 6
-7 21 -18 34 -25 13 -7 49 -32 80 -54 31 -23 63 -46 72 -52 31 -19 124 -85
184 -129 33 -25 69 -45 80 -45 11 -1 26 -10 32 -21 7 -11 27 -27 43 -35 17 -9
39 -23 48 -31 28 -25 106 -74 118 -74 7 0 15 12 18 26 9 36 31 24 31 -18 0
-40 19 -68 46 -68 10 0 26 -11 35 -25 17 -25 57 -34 69 -15 11 17 37 11 42
-11 5 -17 11 -19 42 -14 24 3 46 0 66 -11 22 -12 63 -17 158 -19 70 -1 133 -7
140 -13 22 -18 127 -73 146 -77 24 -4 71 -34 71 -45 0 -11 59 -70 69 -70 15 0
41 -60 41 -94 0 -18 9 -50 20 -71 23 -45 19 -85 -10 -122 -10 -13 -31 -59 -46
-103 -18 -51 -35 -82 -46 -86 -10 -3 -18 -9 -18 -13 0 -17 -43 -51 -65 -51
-15 0 -26 -7 -30 -20 -3 -11 -12 -20 -20 -20 -7 0 -15 -5 -17 -10 -2 -6 -12
-12 -23 -14 -88 -16 -116 -19 -160 -17 -120 6 -292 93 -330 167 -11 22 -30 52
-42 67 -13 16 -23 35 -23 43 0 8 -4 14 -9 14 -5 0 -14 24 -21 53 -7 29 -23 62
-36 75 -35 33 -57 81 -50 108 7 26 -11 34 -20 10 -10 -27 -36 -6 -31 24 7 32
-8 50 -40 50 -14 0 -23 6 -23 16 0 8 5 12 10 9 6 -3 10 -1 10 4 0 6 -9 11 -20
11 -10 0 -24 8 -29 18 -6 10 -53 54 -105 96 -53 43 -96 82 -96 86 0 5 -16 14
-35 20 -19 6 -37 19 -40 28 -3 9 -27 30 -53 46 -26 17 -72 52 -103 78 -30 26
-59 48 -63 48 -4 0 -38 27 -75 60 -37 33 -72 60 -77 60 -4 0 -17 9 -29 20 -43
41 -65 60 -71 60 -7 0 -80 57 -124 97 -19 18 -38 33 -42 33 -11 0 -92 72 -108
96 -8 12 -53 53 -100 89 -109 84 -157 123 -193 158 -16 15 -47 37 -69 48 -30
15 -39 25 -36 42 2 14 11 23 26 25 20 3 23 8 18 28 -12 45 14 52 57 16z
m-5404 -198 c12 -15 21 -36 21 -48 0 -27 -49 -76 -75 -76 -26 0 -75 49 -75 76
0 37 37 74 75 74 24 0 39 -7 54 -26z m4913 -24 c26 -27 30 -36 25 -68 -16 -97
-148 -96 -163 0 -6 32 -2 41 24 68 19 18 41 30 57 30 16 0 38 -12 57 -30z
m-1068 -12 c14 -23 -3 -52 -32 -56 -29 -5 -60 42 -42 64 17 19 60 14 74 -8z
m-1523 -28 c24 -13 25 -57 2 -82 -22 -25 -79 -24 -93 1 -14 26 -13 64 2 79 15
15 63 16 89 2z m-1043 -12 c15 -15 16 -55 1 -63 -18 -12 -57 4 -64 26 -12 38
35 65 63 37z m887 -46 c0 -18 -20 -15 -23 4 -3 10 1 15 10 12 7 -3 13 -10 13
-16z m-3287 -44 c16 -16 15 -53 -2 -67 -8 -7 -27 -11 -43 -9 -51 6 -41 88 11
88 12 0 27 -5 34 -12z m3482 -27 c0 -14 -18 -23 -30 -16 -6 4 -8 11 -5 16 8
12 35 12 35 0z m-6256 -40 c7 -10 -22 -37 -30 -28 -9 8 3 37 15 37 5 0 12 -4
15 -9z m11166 -16 c16 -20 -12 -65 -40 -65 -21 0 -37 38 -26 65 7 19 50 19 66
0z m-5944 -34 c-8 -13 -36 -15 -36 -3 0 4 5 13 12 20 14 14 34 0 24 -17z
m-5276 -31 c0 -21 -15 -27 -25 -10 -7 12 2 30 16 30 5 0 9 -9 9 -20z m-50 -69
c0 -6 -4 -13 -10 -16 -5 -3 -10 1 -10 9 0 9 5 16 10 16 6 0 10 -4 10 -9z m90
-1 c0 -5 -2 -10 -4 -10 -3 0 -8 5 -11 10 -3 6 -1 10 4 10 6 0 11 -4 11 -10z
m-140 -65 c0 -8 -4 -15 -10 -15 -5 0 -10 7 -10 15 0 8 5 15 10 15 6 0 10 -7
10 -15z m100 0 c0 -8 -4 -15 -10 -15 -5 0 -10 7 -10 15 0 8 5 15 10 15 6 0 10
-7 10 -15z m7690 0 c15 -18 10 -45 -12 -59 -33 -20 -69 20 -54 60 7 18 50 18
66 -1z m-7240 -35 c0 -5 -2 -10 -4 -10 -3 0 -8 5 -11 10 -3 6 -1 10 4 10 6 0
11 -4 11 -10z m10511 -39 c34 -35 36 -52 9 -96 -21 -34 -61 -54 -93 -47 -19 4
-57 70 -57 100 0 11 11 31 25 46 33 36 78 35 116 -3z m-10931 9 c0 -5 -4 -10
-10 -10 -5 0 -10 5 -10 10 0 6 5 10 10 10 6 0 10 -4 10 -10z m-92 -57 c4 -36
-25 -73 -57 -73 -14 0 -21 -8 -23 -27 -2 -20 -9 -28 -23 -28 -28 0 -33 35 -5
42 19 5 21 11 16 47 -8 57 9 77 64 73 20 -2 26 -8 28 -34z m-140 -15 c-4 -27
-28 -36 -28 -10 0 20 8 32 22 32 5 0 8 -10 6 -22z m207 -18 c-5 -8 -11 -8 -17
-2 -6 6 -7 16 -3 22 5 8 11 8 17 2 6 -6 7 -16 3 -22z m585 15 c0 -9 -6 -12
-15 -9 -8 4 -15 10 -15 15 0 5 7 9 15 9 8 0 15 -7 15 -15z m75 -83 c-6 -7 -35
18 -35 31 0 5 9 2 20 -8 11 -10 18 -20 15 -23z m-915 18 c0 -5 -5 -10 -11 -10
-5 0 -7 5 -4 10 3 6 8 10 11 10 2 0 4 -4 4 -10z m220 -30 c0 -13 -7 -20 -19
-20 -22 0 -35 15 -26 30 12 19 45 11 45 -10z m9889 -45 c29 -14 41 -46 41
-106 0 -39 -38 -64 -87 -56 -57 10 -69 31 -65 109 2 21 11 32 40 47 45 24 38
24 71 6z m-9959 -21 c0 -17 -22 -14 -28 4 -2 7 3 12 12 12 9 0 16 -7 16 -16z
m108 -2 c2 -7 -3 -12 -12 -12 -9 0 -16 7 -16 16 0 17 22 14 28 -4z m10906 2
c22 -21 20 -34 -4 -34 -15 0 -20 7 -20 25 0 29 3 30 24 9z m-9326 -81 c38 -33
33 -97 -10 -123 -44 -27 -64 -25 -93 6 -34 37 -30 101 9 126 20 14 74 8 94 -9z
m-695 -125 c-3 -6 -12 -3 -20 5 -9 9 -12 20 -8 28 6 9 11 8 21 -6 7 -10 11
-22 7 -27z m57 -58 c0 -5 -4 -10 -10 -10 -5 0 -10 5 -10 10 0 6 5 10 10 10 6
0 10 -4 10 -10z m1284 -32 c36 -51 5 -118 -54 -118 -56 0 -89 66 -60 121 16
29 93 27 114 -3z m-1695 -36 c63 -23 81 -43 81 -87 0 -41 -16 -55 -62 -55 -20
0 -53 -7 -72 -17 -34 -16 -35 -15 -65 8 -16 13 -41 32 -55 42 -37 26 -34 62 7
87 17 11 40 20 50 20 10 0 20 7 24 16 6 17 9 16 92 -14z m-209 8 c0 -5 -4 -10
-10 -10 -5 0 -10 5 -10 10 0 6 5 10 10 10 6 0 10 -4 10 -10z m1865 -444 c30
-13 35 -20 35 -48 0 -49 -24 -78 -65 -78 -62 0 -92 58 -55 110 24 34 36 36 85
16z m-2285 -510 c18 -23 8 -61 -17 -64 -29 -4 -48 30 -33 58 13 24 33 26 50 6z
m98 -118 c6 -6 33 -10 59 -9 45 1 50 -1 95 -49 l47 -50 -6 -57 c-6 -50 -11
-63 -49 -100 -39 -40 -45 -43 -96 -43 -51 0 -57 3 -101 45 -41 40 -46 50 -45
88 0 23 -2 53 -6 67 -5 20 1 34 35 73 46 51 49 53 67 35z m10026 -107 c21 -23
18 -70 -6 -85 -11 -7 -26 -7 -45 0 -21 7 -29 17 -31 40 -5 56 47 84 82 45z
m-8453 -42 c26 -14 41 -55 34 -91 -5 -20 -18 -34 -46 -49 -50 -25 -76 -18 -95
27 -19 46 -18 67 7 98 22 28 64 35 100 15z m-1134 -305 c14 -37 -41 -70 -73
-44 -7 7 -14 23 -14 36 0 21 5 24 40 24 28 0 43 -5 47 -16z m10023 -154 c0
-11 -4 -20 -9 -20 -11 0 -22 26 -14 34 12 12 23 5 23 -14z m-473 -86 c-9 -9
-28 6 -21 18 4 6 10 6 17 -1 6 -6 8 -13 4 -17z m-8647 -1040 c0 -8 -4 -12 -10
-9 -5 3 -10 13 -10 21 0 8 5 12 10 9 6 -3 10 -13 10 -21z"/>
<path d="M12147 15374 c-8 -8 1 -24 14 -24 5 0 9 7 9 15 0 15 -12 20 -23 9z"/>
<path d="M3115 14250 c3 -5 8 -10 11 -10 2 0 4 5 4 10 0 6 -5 10 -11 10 -5 0
-7 -4 -4 -10z"/>
<path d="M3095 14171 c-20 -39 -19 -41 10 -41 21 0 25 5 25 29 0 42 -16 47
-35 12z"/>
<path d="M8010 15043 c0 -23 15 -39 24 -25 3 5 -1 18 -9 28 -14 18 -14 18 -15
-3z"/>
<path d="M7240 14800 c0 -5 7 -10 15 -10 8 0 15 5 15 10 0 6 -7 10 -15 10 -8
0 -15 -4 -15 -10z"/>
<path d="M11208 14343 c7 -3 16 -2 19 1 4 3 -2 6 -13 5 -11 0 -14 -3 -6 -6z"/>
<path d="M11044 14294 c3 -9 6 -18 6 -20 0 -2 7 -4 15 -4 18 0 19 12 3 28 -17
17 -31 15 -24 -4z"/>
<path d="M1590 13255 c0 -8 5 -15 10 -15 6 0 10 7 10 15 0 8 -4 15 -10 15 -5
0 -10 -7 -10 -15z"/>
<path d="M1561 13162 c-7 -13 -11 -31 -9 -40 3 -14 6 -13 17 6 7 13 11 31 9
40 -3 14 -6 13 -17 -6z"/>
<path d="M1327 12360 c-3 -11 -2 -20 3 -20 4 0 10 9 13 20 3 11 2 20 -3 20 -4
0 -10 -9 -13 -20z"/>
<path d="M13622 12353 c5 -25 28 -28 28 -4 0 12 -6 21 -16 21 -9 0 -14 -7 -12
-17z"/>
<path d="M13464 12349 c-3 -6 10 -27 30 -46 35 -34 36 -37 20 -54 -25 -28 -72
-25 -86 6 -11 25 -38 35 -38 14 0 -5 -21 -19 -46 -30 -42 -19 -47 -19 -70 -4
-24 16 -64 13 -64 -5 0 -5 15 -20 33 -32 19 -13 51 -38 73 -55 84 -70 103 -83
120 -83 19 -1 54 -22 54 -33 0 -13 76 -76 92 -77 9 0 34 -15 57 -32 91 -73
106 -83 133 -95 16 -7 31 -19 34 -28 3 -8 11 -15 18 -15 6 0 25 -12 42 -27 33
-30 56 -46 90 -66 12 -7 46 -28 76 -48 30 -20 64 -39 74 -43 11 -3 37 -22 59
-41 21 -19 48 -41 60 -48 50 -27 111 -71 133 -93 13 -13 34 -24 47 -24 13 0
28 -7 33 -15 4 -9 22 -23 39 -33 64 -36 127 -79 184 -126 l60 -48 127 36 c152
43 345 80 376 72 13 -3 30 0 40 7 15 11 15 16 2 57 -40 124 -72 485 -65 728 1
25 -7 39 -17 29 -4 -3 -8 -32 -10 -64 -1 -32 -8 -94 -14 -138 -7 -44 -12 -99
-12 -122 0 -30 -5 -43 -14 -43 -8 0 -14 7 -14 15 0 8 -7 15 -15 15 -10 0 -15
10 -15 30 0 20 5 30 15 30 22 0 18 17 -5 23 -15 4 -20 14 -20 41 0 20 -4 36
-10 36 -5 0 -10 13 -10 29 0 29 0 29 -40 19 -35 -9 -45 -7 -85 16 -47 28 -75
28 -102 0 -9 -9 -10 -15 -2 -19 6 -4 16 -2 22 4 16 16 64 13 71 -4 3 -8 17
-20 32 -25 24 -10 26 -14 19 -48 -4 -20 -8 -50 -10 -67 -1 -16 -3 -36 -3 -42
-1 -7 -11 -13 -21 -13 -11 0 -26 -7 -34 -15 -8 -8 -17 -11 -21 -8 -3 4 -6 0
-6 -7 0 -9 -4 -8 -13 4 -19 26 -57 13 -57 -20 0 -13 -3 -23 -7 -23 -21 3 -33
-2 -33 -16 0 -8 5 -15 10 -15 24 0 7 -19 -26 -30 -30 -10 -38 -9 -53 4 -10 10
-35 16 -62 16 -25 0 -57 8 -74 18 -16 10 -51 19 -76 20 -46 2 -47 1 -53 -33
-4 -21 -13 -35 -22 -35 -22 0 -28 27 -10 46 9 8 21 25 28 37 11 21 10 21 -9 5
-11 -10 -36 -18 -56 -18 -21 0 -46 -5 -57 -12 -15 -10 -26 -9 -54 5 -20 9 -36
23 -36 31 0 8 -12 23 -27 34 l-27 19 24 13 c20 11 25 10 28 0 7 -19 49 -60 62
-60 7 0 10 15 8 38 -3 32 -6 37 -28 37 -53 0 -46 51 8 57 15 2 27 10 28 18 2
34 5 39 17 35 6 -3 32 -2 57 3 58 10 67 36 13 40 -20 1 -40 8 -45 15 -9 14 17
31 33 21 7 -4 10 -1 7 7 -3 8 -13 13 -22 13 -9 -1 -16 4 -16 12 0 8 -7 14 -15
14 -8 0 -15 9 -15 20 0 13 -7 20 -20 20 -11 0 -20 6 -20 14 0 7 -14 16 -31 20
-48 9 -57 8 -62 -11 -3 -10 -5 -3 -6 15 -1 26 3 32 19 32 11 0 20 5 20 10 0 6
-68 10 -182 11 -101 1 -175 3 -165 6 10 3 17 14 17 28 0 29 -34 38 -120 33
-55 -3 -55 -3 -55 -35 0 -27 -4 -33 -21 -33 -13 0 -24 8 -27 20 -3 11 -12 20
-21 20 -23 0 -20 21 4 27 25 7 28 46 3 41 -10 -2 -18 -10 -18 -18 0 -33 -49
-41 -71 -12 -16 21 -18 54 -3 69 16 16 -17 43 -51 43 -16 0 -32 -5 -36 -11z
m54 -170 c2 -5 10 -9 18 -9 22 0 16 -38 -7 -45 -34 -11 -109 4 -109 22 0 10
-6 14 -19 10 -23 -6 -44 6 -47 28 -2 14 7 15 79 9 45 -4 84 -11 85 -15z m172
-209 c0 -5 -9 -10 -20 -10 -11 0 -20 5 -20 10 0 6 9 10 20 10 11 0 20 -4 20
-10z m590 -31 c11 -19 9 -20 -17 -17 -17 2 -29 10 -31 21 -5 25 35 22 48 -4z
m-510 -18 c0 -5 -9 -11 -20 -14 -13 -3 -20 0 -20 9 0 8 9 14 20 14 11 0 20 -4
20 -9z m443 -52 c-13 -13 -43 0 -43 17 0 8 10 18 23 23 18 7 23 5 25 -11 2
-11 0 -24 -5 -29z"/>
<path d="M13127 12116 c-6 -15 6 -29 35 -39 10 -3 20 -17 23 -30 5 -17 17 -28
38 -34 35 -9 53 -53 23 -53 -13 0 -16 -13 -16 -65 0 -51 3 -65 15 -65 8 0 15
-4 15 -10 0 -5 -7 -10 -15 -10 -9 0 -15 -9 -15 -25 0 -16 -6 -25 -16 -25 -12
0 -14 -7 -10 -27 7 -39 9 -96 7 -260 l-1 -142 -32 -4 -33 -4 33 -1 c31 -2 32
-3 32 -47 0 -43 -1 -45 -30 -45 -24 0 -30 -4 -30 -21 0 -17 5 -20 33 -17 29 3
32 0 35 -26 2 -16 -1 -32 -7 -36 -9 -5 -8 -27 1 -80 10 -58 10 -74 0 -78 -17
-5 -15 -42 3 -42 12 0 15 -13 15 -60 0 -41 4 -60 13 -60 8 0 7 -3 -3 -10 -11
-7 -14 -35 -13 -134 0 -100 -3 -126 -13 -126 -8 0 -14 -5 -14 -11 0 -6 6 -9
13 -6 11 4 14 -9 14 -55 0 -50 -3 -59 -17 -55 -13 3 -15 -2 -12 -27 3 -17 9
-34 14 -37 5 -3 12 -26 15 -50 3 -24 9 -46 13 -49 16 -12 25 -95 22 -222 l-3
-137 -34 -7 c-46 -8 -45 -24 1 -24 27 0 37 -5 41 -20 3 -11 9 -17 14 -14 5 3
9 -2 9 -10 0 -15 -39 -27 -102 -30 -17 -1 -34 -8 -36 -15 -4 -11 2 -12 24 -7
15 4 125 9 242 12 118 2 218 6 222 9 4 2 10 30 14 62 3 32 14 80 22 107 9 27
14 65 11 85 -4 34 13 78 25 65 6 -6 38 70 38 90 0 7 7 19 14 26 8 6 22 33 31
60 9 27 24 59 34 72 10 13 22 34 26 48 4 14 14 32 21 41 8 8 24 34 36 56 67
120 211 278 370 405 54 43 101 78 104 78 4 0 30 15 58 34 28 18 84 50 124 70
40 20 72 43 72 51 0 8 -19 27 -41 42 -89 60 -125 83 -159 103 -19 11 -55 36
-80 55 -25 19 -55 39 -66 44 -12 5 -23 13 -25 18 -2 4 -24 21 -49 38 -25 16
-47 33 -50 37 -3 4 -17 12 -30 18 -24 10 -57 31 -151 95 -51 34 -62 41 -112
73 -20 13 -37 28 -37 32 0 5 -10 12 -22 16 -13 4 -36 17 -51 30 -16 13 -36 24
-45 24 -9 1 -33 14 -52 30 -19 17 -38 30 -43 30 -5 0 -22 11 -39 25 -16 14
-36 25 -43 25 -8 0 -20 12 -27 28 -10 19 -22 28 -44 30 -27 3 -33 -1 -38 -23
-5 -20 -12 -26 -29 -23 -32 4 -29 40 3 48 14 3 25 11 25 17 0 17 -70 61 -110
69 -19 3 -35 10 -35 15 0 5 -26 26 -57 46 -32 20 -59 40 -61 45 -6 13 -39 9
-45 -6z m378 -281 c0 -14 -8 -21 -27 -23 -24 -3 -28 0 -28 23 0 23 4 26 28 23
19 -2 27 -9 27 -23z m95 -55 c11 -11 33 -23 49 -26 17 -4 33 -16 40 -30 6 -13
16 -24 22 -24 14 0 36 -26 49 -57 15 -36 -33 -137 -79 -165 -52 -33 -166 -36
-198 -6 -17 15 -30 19 -53 15 -33 -7 -39 7 -19 45 9 16 7 24 -10 42 -27 29
-27 72 0 86 16 9 19 17 14 43 -4 18 -11 36 -16 42 -5 5 -9 17 -9 27 0 26 40
24 47 -2 7 -27 39 -25 75 5 36 30 61 32 88 5z m720 -475 c10 -12 9 -16 -5 -21
-19 -8 -40 9 -31 25 10 15 21 14 36 -4z m-45 -55 c3 -5 17 -10 31 -10 13 0 24
5 24 10 0 13 57 13 65 -1 4 -6 -1 -16 -11 -24 -18 -12 -18 -14 -2 -20 22 -9
32 -58 17 -87 -14 -27 -77 -88 -91 -88 -6 0 -32 22 -59 49 -51 51 -52 56 -25
122 4 9 0 21 -9 29 -8 7 -15 16 -15 21 0 12 67 11 75 -1z m176 -40 c24 -13 25
-40 1 -40 -21 0 -42 18 -42 37 0 16 15 17 41 3z m-241 -160 c0 -5 -7 -10 -15
-10 -8 0 -15 5 -15 10 0 6 7 10 15 10 8 0 15 -4 15 -10z m-680 -786 c-13 -15
-50 -20 -50 -6 0 4 12 21 28 37 27 29 27 29 30 7 2 -13 -2 -30 -8 -38z m-70
-21 c0 -15 -35 -12 -51 4 -6 6 -8 16 -5 22 9 14 56 -7 56 -26z m153 -13 c14
-11 35 -20 47 -20 22 0 22 -3 17 -57 -4 -41 -12 -62 -26 -73 -11 -8 -25 -27
-30 -42 -6 -16 -14 -28 -18 -28 -5 0 -30 13 -58 28 -43 24 -51 33 -60 72 -8
34 -16 45 -30 45 -15 0 -21 -9 -25 -33 -3 -18 -8 -33 -12 -32 -5 0 -12 0 -17
0 -5 0 -13 10 -17 22 -5 17 1 29 31 55 20 18 45 33 54 33 9 0 25 11 35 25 23
31 73 33 109 5z m-131 -187 c10 -9 18 -22 18 -30 0 -7 5 -13 10 -13 16 0 11
-27 -6 -34 -9 -3 -34 -6 -56 -6 -39 0 -40 0 -26 23 8 12 18 34 22 50 7 31 13
33 38 10z"/>
<path d="M13148 12012 c-24 -5 -23 -29 2 -42 15 -8 21 -6 29 9 12 22 -4 40
-31 33z"/>
<path d="M14477 11964 c-8 -8 1 -24 14 -24 5 0 9 7 9 15 0 15 -12 20 -23 9z"/>
<path d="M14882 11878 c-16 -16 -15 -63 1 -76 10 -9 19 -7 35 4 26 18 28 46 6
68 -19 19 -26 20 -42 4z"/>
<path d="M14307 11854 c-10 -10 2 -24 21 -24 9 1 31 7 47 15 l30 13 -46 1
c-25 1 -49 -2 -52 -5z"/>
<path d="M4017 11183 c-3 -5 -1 -17 4 -28 7 -17 8 -17 8 8 1 27 -4 34 -12 20z"/>
<path d="M1118 10760 c-16 -130 -18 -557 -3 -750 32 -421 107 -874 187 -1129
16 -53 36 -121 43 -151 58 -230 57 -225 147 -510 35 -112 74 -217 112 -305 8
-16 22 -52 31 -80 24 -66 158 -373 199 -455 18 -36 54 -108 80 -160 27 -52 81
-154 122 -225 252 -449 535 -848 888 -1255 149 -172 439 -465 556 -564 30 -25
72 -60 94 -78 21 -18 73 -64 116 -103 42 -38 106 -92 141 -120 35 -27 94 -75
131 -105 37 -30 100 -79 140 -108 40 -29 105 -75 143 -103 68 -50 189 -130
330 -220 445 -285 991 -545 1535 -731 296 -101 753 -220 1010 -263 52 -8 127
-22 165 -30 39 -7 126 -21 195 -30 69 -8 159 -20 200 -25 419 -55 1232 -55
1644 0 456 61 766 119 1061 200 44 12 98 26 120 31 22 5 60 16 85 24 25 8 95
30 155 49 242 77 527 184 720 271 44 20 107 48 140 62 90 40 461 229 530 270
33 19 75 44 93 54 37 21 34 19 187 115 110 68 235 151 330 219 28 19 82 57
120 84 79 55 357 273 425 335 25 23 84 75 130 116 104 93 277 258 339 324 25
27 85 90 132 140 92 97 139 152 204 235 22 28 43 51 46 51 4 0 26 26 50 57 24
32 82 106 129 165 75 94 128 163 195 258 21 29 148 215 232 340 53 78 143 228
143 237 0 3 14 25 30 50 17 24 30 46 30 49 0 3 11 20 24 37 55 74 224 412 349
702 25 57 120 301 138 355 30 87 89 275 104 330 9 36 21 76 26 90 9 25 51 187
91 347 17 68 18 86 8 98 -8 10 -20 13 -29 9 -9 -4 -32 -8 -51 -9 -57 -5 -381
-24 -585 -35 -104 -6 -275 -15 -380 -21 -261 -14 -626 -27 -1095 -39 -217 -6
-408 -15 -424 -21 -16 -5 -62 -9 -102 -9 -71 0 -96 -12 -54 -25 11 -3 20 -13
20 -21 0 -18 -24 -44 -39 -44 -6 0 -11 -4 -11 -10 0 -5 -16 -10 -35 -10 -19 0
-35 -3 -35 -7 0 -5 -23 -9 -51 -11 -29 -2 -58 -10 -66 -18 -8 -8 -28 -14 -44
-14 -16 0 -29 -5 -29 -10 0 -6 -21 -9 -52 -6 -57 5 -158 -11 -158 -25 0 -4
-27 -11 -60 -15 -33 -4 -60 -11 -60 -16 0 -5 -4 -7 -8 -4 -9 5 -99 -10 -232
-38 -41 -8 -145 -20 -230 -26 -140 -10 -184 -14 -330 -35 -25 -4 -47 -10 -50
-14 -11 -17 -192 -24 -545 -22 -203 2 -444 7 -535 13 -277 16 -420 20 -420 11
0 -10 -78 -6 -265 14 -82 9 -168 18 -190 19 -22 2 -69 6 -105 9 -36 3 -191 10
-345 16 -346 12 -396 17 -411 37 -10 13 -34 14 -178 9 -135 -5 -166 -4 -166 7
0 11 -44 14 -222 16 -288 2 -369 6 -377 16 -3 5 -94 10 -201 12 -107 2 -220 7
-250 12 -30 6 -104 11 -165 12 -60 1 -113 6 -116 10 -3 4 -58 9 -122 9 -64 1
-117 6 -117 11 0 5 -16 6 -35 2 -25 -4 -35 -3 -35 6 0 10 -19 11 -79 6 -44 -3
-82 -2 -85 2 -3 5 -26 9 -52 10 -26 0 -49 4 -53 10 -3 5 -60 12 -126 16 -65 3
-121 10 -125 15 -3 4 -86 15 -185 25 -258 24 -375 39 -375 48 0 5 -12 7 -27 6
-20 -2 -30 3 -37 17 -7 16 -19 20 -55 21 -125 3 -273 21 -356 43 -22 6 -54 11
-71 11 -17 0 -41 9 -54 20 -13 11 -36 20 -52 20 -17 0 -28 5 -28 13 0 12 -61
38 -100 42 -8 1 -23 2 -32 3 -9 1 -23 9 -32 17 -21 21 -66 10 -66 -17 0 -10
-4 -16 -10 -13 -5 3 -24 7 -42 9 -18 2 -57 7 -86 11 l-52 8 67 24 c38 13 95
28 128 33 33 5 94 16 135 25 41 8 120 22 175 31 55 8 141 22 190 30 50 9 131
19 180 22 133 10 148 29 47 58 -31 9 -64 22 -72 29 -23 18 -99 52 -155 68 -28
8 -66 24 -85 36 -19 11 -41 21 -49 21 -14 0 -82 28 -125 52 -11 6 -49 21 -85
33 -74 26 -220 80 -361 133 -52 19 -129 47 -171 61 -42 14 -82 31 -90 37 -8 6
-30 14 -50 18 -21 4 -52 14 -69 23 -18 8 -52 18 -76 21 -24 2 -51 13 -60 23
-9 11 -29 19 -44 19 -15 0 -49 11 -76 25 -27 14 -71 28 -97 32 -26 3 -50 10
-53 14 -3 5 -13 9 -23 9 -16 0 -53 13 -146 50 -11 5 -53 13 -92 19 -75 11
-142 37 -156 58 -5 8 -30 12 -65 12 -58 -1 -143 16 -152 31 -3 4 -18 9 -35 11
-16 2 -35 7 -41 11 -6 5 -32 7 -58 5 -33 -3 -59 2 -96 20 -37 17 -79 26 -160
33 -62 6 -121 16 -133 24 -20 13 -42 17 -180 31 -27 3 -53 7 -58 11 -5 3 -42
10 -82 14 -90 11 -216 37 -242 50 -11 6 -51 9 -90 8 -106 -4 -445 43 -445 62
0 5 8 9 18 9 9 0 44 3 78 7 40 4 68 2 83 -5 12 -7 72 -14 134 -16 84 -3 106
-2 87 6 -14 6 -42 9 -62 7 -22 -2 -38 1 -38 7 0 11 -108 37 -149 36 -13 -1
-30 4 -37 10 -10 9 -14 9 -14 0 0 -15 -47 -14 -53 2 -3 10 -9 10 -26 0 -31
-19 -111 -17 -111 2 0 8 5 15 10 15 16 0 11 27 -6 34 -26 10 -34 7 -34 -13 0
-11 -8 -22 -17 -24 -14 -4 -12 -5 5 -6 14 -1 22 -7 22 -20 0 -11 12 -23 31
-31 25 -11 28 -15 15 -22 -31 -17 -211 -11 -227 8 -13 15 -4 49 10 39 14 -8
23 31 16 67 -8 33 -26 58 -44 58 -12 0 -17 31 -28 170 -8 101 -9 103 -15 50z
m3646 -1755 c-4 -8 -10 -15 -15 -15 -5 0 -9 7 -9 15 0 8 7 15 15 15 9 0 12 -6
9 -15z m-974 -304 c0 -4 -11 -6 -25 -3 -14 2 -25 6 -25 8 0 2 11 4 25 4 14 0
25 -4 25 -9z m335 -31 c50 -6 117 -16 150 -22 33 -6 96 -16 140 -22 269 -41
771 -168 1210 -306 169 -53 603 -184 695 -209 58 -16 140 -41 184 -55 43 -14
86 -26 94 -26 9 0 43 -9 76 -19 111 -35 360 -105 576 -161 154 -40 205 -53
330 -83 36 -9 81 -20 100 -25 53 -14 295 -72 385 -92 44 -10 125 -30 181 -44
55 -14 154 -34 220 -45 119 -20 175 -31 379 -72 61 -12 137 -25 170 -30 57 -7
186 -27 320 -50 33 -5 143 -14 245 -19 102 -5 289 -16 415 -25 127 -8 329 -22
450 -30 320 -21 337 -23 349 -35 5 -5 25 -10 44 -10 19 0 59 -7 89 -16 39 -11
73 -14 112 -10 60 7 116 -6 125 -29 3 -9 29 -17 66 -21 34 -4 67 -13 75 -20 7
-8 31 -14 52 -14 21 0 51 -7 67 -15 15 -8 39 -12 52 -9 22 6 24 3 24 -33 0
-38 -2 -41 -39 -51 -21 -7 -50 -12 -65 -12 -39 0 -31 -17 12 -23 20 -3 60 -9
87 -13 28 -4 60 -15 72 -24 13 -10 49 -21 80 -25 32 -4 62 -10 68 -13 5 -3 25
-5 43 -3 18 1 44 -4 56 -13 13 -8 47 -18 75 -22 49 -6 65 -19 38 -30 -7 -2
-40 -6 -73 -8 -32 -2 -59 -5 -59 -6 0 -2 -48 -3 -107 -4 -93 -1 -109 -4 -121
-20 -11 -15 -28 -20 -73 -21 -103 -4 -174 -17 -174 -31 0 -8 -9 -14 -20 -14
-11 0 -20 -6 -20 -13 0 -9 -32 -17 -97 -26 -54 -7 -101 -18 -105 -24 -4 -7
-12 -4 -24 7 -15 15 -27 17 -83 10 -36 -4 -91 -8 -121 -9 -30 -1 -62 -5 -70
-8 -8 -4 -35 -6 -60 -6 -79 2 -182 -16 -195 -34 -10 -14 -32 -17 -139 -17 -77
0 -126 4 -126 10 0 6 -50 10 -130 10 -114 0 -130 -2 -130 -17 0 -15 -20 -16
-232 -10 -127 4 -234 10 -237 15 -7 11 -221 36 -306 37 -33 0 -66 4 -72 8 -7
5 -18 5 -24 1 -6 -3 -14 -2 -18 4 -3 5 -43 12 -88 15 -73 5 -81 4 -76 -11 4
-12 1 -11 -13 4 -13 15 -36 23 -69 27 -28 3 -72 10 -99 16 -41 9 -52 8 -66 -4
-18 -17 -170 -22 -170 -6 0 5 -17 12 -37 16 -21 4 -46 15 -56 26 -12 12 -31
19 -57 19 -21 0 -40 4 -42 9 -1 6 -43 10 -93 11 -164 2 -318 21 -335 41 -17
21 -95 35 -275 49 -66 6 -121 15 -123 20 -2 6 -15 10 -28 10 -15 0 -24 6 -24
16 0 14 -7 15 -40 10 -33 -5 -40 -3 -40 10 0 14 -7 16 -45 11 -25 -4 -45 -3
-45 2 0 7 -49 18 -115 24 -11 1 -25 5 -31 9 -21 14 -148 36 -244 43 -94 6
-160 22 -160 37 0 4 -9 8 -20 8 -13 0 -20 7 -20 18 0 11 -12 22 -33 30 -46 17
-57 15 -57 -8 0 -24 -45 -38 -70 -22 -10 6 -37 16 -60 22 -47 13 -70 30 -70
54 0 10 -9 16 -23 16 -13 0 -29 6 -35 12 -7 7 -29 14 -50 15 -35 2 -79 8 -149
19 -20 3 -33 11 -33 19 0 8 -7 15 -15 15 -8 0 -15 5 -15 10 0 6 -9 10 -20 10
-11 0 -20 7 -20 15 0 11 -12 15 -50 15 -36 0 -50 4 -50 14 0 14 -42 26 -91 26
-18 0 -29 5 -29 14 0 21 -27 39 -73 47 -70 12 -162 39 -165 49 -6 16 -42 11
-42 -5 0 -12 -7 -14 -27 -9 -16 4 -32 9 -37 12 -15 8 23 24 44 17 16 -5 20 -2
20 14 0 16 -6 21 -25 21 -15 0 -25 6 -25 14 0 8 -15 17 -35 20 -20 4 -35 13
-35 21 0 14 -19 19 -109 29 -24 2 -47 9 -50 14 -3 5 -22 12 -43 16 -20 4 -38
13 -41 20 -3 8 -24 17 -46 21 -31 5 -41 11 -41 26 0 12 -7 19 -18 19 -10 0
-26 9 -35 21 -14 15 -27 20 -55 17 -35 -3 -37 -1 -37 27 -1 42 -10 53 -50 61
-19 3 -32 10 -30 15 3 4 -17 11 -45 15 -27 4 -50 10 -50 14 0 4 -15 11 -33 14
-36 7 -97 57 -97 79 0 9 -24 21 -65 32 -51 13 -65 21 -65 36 0 12 -7 19 -19
19 -11 0 -26 7 -35 15 -8 8 -26 15 -40 15 -16 0 -27 7 -31 20 -3 11 -15 20
-25 20 -11 0 -25 6 -31 13 -7 7 -26 11 -46 9 -24 -3 -33 0 -33 11 0 9 -13 17
-35 21 -26 5 -35 12 -35 26 0 11 -7 20 -15 20 -9 0 -18 6 -21 14 -3 8 -16 17
-30 20 -24 6 -24 8 -24 126 0 113 -1 120 -20 120 -26 0 -26 20 0 27 35 9 16
28 -35 33 -36 4 -52 11 -63 28 -15 23 -15 24 19 18 19 -3 75 -10 124 -16z
m-75 -74 c0 -9 -7 -12 -20 -9 -11 3 -17 9 -14 14 8 14 34 10 34 -5z m7530
-1482 c0 -8 -4 -14 -10 -14 -5 0 -10 9 -10 21 0 11 5 17 10 14 6 -3 10 -13 10
-21z m-3470 -1059 c270 -14 734 -50 770 -60 8 -2 67 -9 130 -14 120 -11 219
-24 530 -67 102 -14 221 -29 265 -34 44 -5 134 -16 200 -25 111 -14 251 -30
605 -69 172 -19 350 -34 565 -46 94 -5 184 -13 200 -18 26 -8 19 -10 -45 -15
-41 -4 -118 -9 -170 -12 -52 -3 -102 -8 -110 -10 -8 -2 -31 -7 -50 -10 -19 -3
-65 -15 -101 -25 -36 -11 -93 -20 -125 -20 -95 0 -164 -11 -164 -26 0 -8 -10
-16 -22 -18 -110 -23 -187 -34 -209 -30 -15 3 -30 1 -33 -4 -4 -6 -22 -8 -41
-5 -19 3 -40 1 -47 -5 -7 -6 -56 -13 -108 -16 -145 -10 -280 -28 -280 -37 0
-5 -19 -9 -42 -9 -59 0 -86 -9 -93 -30 -7 -21 -28 -24 -293 -39 -101 -6 -187
-13 -192 -16 -30 -18 -366 -39 -653 -40 -93 0 -167 -4 -167 -9 0 -6 -154 -7
-381 -3 -232 4 -388 3 -399 -3 -12 -6 -48 -4 -106 6 -57 10 -114 14 -159 10
-38 -4 -95 -2 -125 4 -30 5 -158 14 -285 20 -126 6 -232 14 -235 18 -3 4 -50
8 -105 10 -55 1 -135 7 -178 13 -43 6 -96 9 -118 5 -22 -4 -87 -1 -145 6 -98
12 -104 14 -104 35 0 13 -4 23 -10 23 -5 0 -10 7 -10 15 0 8 5 15 10 15 6 0
10 7 10 15 0 10 -11 15 -35 15 -24 0 -35 5 -35 15 0 10 -11 15 -35 15 -29 0
-35 4 -35 21 0 20 -4 21 -45 16 -40 -6 -45 -5 -45 13 0 17 -7 20 -50 20 -27 0
-50 5 -50 10 0 6 -9 10 -20 10 -11 0 -20 7 -20 15 0 11 11 15 41 15 24 0 38 4
34 10 -3 6 2 13 12 17 21 8 34 24 27 35 -9 14 -58 8 -104 -13 -32 -14 -62 -20
-103 -18 -34 2 -61 -2 -65 -8 -14 -22 -112 -24 -112 -3 0 4 27 10 59 14 33 4
61 11 63 16 2 5 38 16 80 24 43 8 85 19 95 24 10 5 41 13 68 17 28 4 57 11 66
16 9 5 77 22 150 39 74 16 154 36 179 43 25 8 72 17 105 21 33 4 75 12 93 17
73 23 405 76 585 93 82 8 151 17 154 20 12 11 691 5 963 -9z m-2763 -371 c-3
-3 -12 -4 -19 -1 -8 3 -5 6 6 6 11 1 17 -2 13 -5z m-47 -24 c-8 -15 -21 -20
-50 -20 -22 0 -40 2 -40 5 0 9 56 34 78 35 20 0 21 -3 12 -20z m-110 -34 c-19
-17 -70 -30 -70 -17 0 14 31 30 60 31 21 0 22 -2 10 -14z"/>
<path d="M6018 5803 c-10 -2 -18 -9 -18 -15 0 -5 7 -7 16 -4 9 3 24 6 35 6 10
0 19 5 19 10 0 10 -21 11 -52 3z"/>
<path d="M1248 10413 c7 -3 16 -2 19 1 4 3 -2 6 -13 5 -11 0 -14 -3 -6 -6z"/>
<path d="M2170 10341 c0 -5 5 -13 10 -16 6 -3 10 -2 10 4 0 5 -4 13 -10 16 -5
3 -10 2 -10 -4z"/>
<path d="M2383 10302 c-36 -5 -27 -22 11 -22 25 0 36 -5 41 -18 5 -17 18 -19
123 -20 64 0 120 2 124 4 4 3 4 12 1 20 -5 13 -24 15 -124 13 -94 -3 -123 0
-137 11 -9 8 -27 14 -39 12z"/>
</g>
</svg>
